<svg id="visual" viewBox="0 0 3000 600" width="3000" height="600" xmlns="http://www.w3.org/2000/svg" xmlns:xlink="http://www.w3.org/1999/xlink" version="1.1"><path d="M0 350L429 350L429 304L857 304L857 226L1286 226L1286 295L1714 295L1714 295L2143 295L2143 240L2571 240L2571 325L3000 325L3000 265L3000 0L3000 0L2571 0L2571 0L2143 0L2143 0L1714 0L1714 0L1286 0L1286 0L857 0L857 0L429 0L429 0L0 0Z" fill="#c192a5"></path><path d="M0 177L429 177L429 178L857 178L857 239L1286 239L1286 156L1714 156L1714 163L2143 163L2143 199L2571 199L2571 230L3000 230L3000 249L3000 0L3000 0L2571 0L2571 0L2143 0L2143 0L1714 0L1714 0L1286 0L1286 0L857 0L857 0L429 0L429 0L0 0Z" fill="#bfb4c6"></path><path d="M0 131L429 131L429 83L857 83L857 103L1286 103L1286 103L1714 103L1714 132L2143 132L2143 135L2571 135L2571 55L3000 55L3000 156L3000 0L3000 0L2571 0L2571 0L2143 0L2143 0L1714 0L1714 0L1286 0L1286 0L857 0L857 0L429 0L429 0L0 0Z" fill="#c192a5"></path></svg>