<svg id="visual" viewBox="0 0 3500 900" width="3500" height="900" xmlns="http://www.w3.org/2000/svg" xmlns:xlink="http://www.w3.org/1999/xlink" version="1.1"><path d="M0 263L36.5 271.7C73 280.3 146 297.7 219 293.3C292 289 365 263 437.8 242.2C510.7 221.3 583.3 205.7 656.2 208.2C729 210.7 802 231.3 875 242.8C948 254.3 1021 256.7 1094 242.5C1167 228.3 1240 197.7 1312.8 203.2C1385.7 208.7 1458.3 250.3 1531.2 244.5C1604 238.7 1677 185.3 1750 151.7C1823 118 1896 104 1969 119.7C2042 135.3 2115 180.7 2187.8 211.8C2260.7 243 2333.3 260 2406.2 264.3C2479 268.7 2552 260.3 2625 250C2698 239.7 2771 227.3 2844 225.3C2917 223.3 2990 231.7 3062.8 226.8C3135.7 222 3208.3 204 3281.2 215C3354 226 3427 266 3463.5 286L3500 306L3500 0L3463.5 0C3427 0 3354 0 3281.2 0C3208.3 0 3135.7 0 3062.8 0C2990 0 2917 0 2844 0C2771 0 2698 0 2625 0C2552 0 2479 0 2406.2 0C2333.3 0 2260.7 0 2187.8 0C2115 0 2042 0 1969 0C1896 0 1823 0 1750 0C1677 0 1604 0 1531.2 0C1458.3 0 1385.7 0 1312.8 0C1240 0 1167 0 1094 0C1021 0 948 0 875 0C802 0 729 0 656.2 0C583.3 0 510.7 0 437.8 0C365 0 292 0 219 0C146 0 73 0 36.5 0L0 0Z" fill="#DC143C" stroke-linecap="round" stroke-linejoin="miter"></path></svg>